<svg width="32" height="32" viewBox="0 0 32 32" fill="none" xmlns="http://www.w3.org/2000/svg">
  <rect width="32" height="32" rx="6" fill="#8B9D83"/>
  <path d="M8 12C8 10.8954 8.89543 10 10 10H14C15.1046 10 16 10.8954 16 12V14C16 15.1046 15.1046 16 14 16H10C8.89543 16 8 15.1046 8 14V12Z" fill="#F5F1E8"/>
  <path d="M16 18C16 16.8954 16.8954 16 18 16H22C23.1046 16 24 16.8954 24 18V20C24 21.1046 23.1046 22 22 22H18C16.8954 22 16 21.1046 16 20V18Z" fill="#F5F1E8"/>
  <circle cx="12" cy="20" r="2" fill="#C97D60"/>
  <circle cx="20" cy="12" r="2" fill="#C97D60"/>
</svg>
